<svg version="1.1" viewBox="0.0 0.0 720.0 720.0" fill="none" stroke="none" stroke-linecap="square" stroke-miterlimit="10" xmlns:xlink="http://www.w3.org/1999/xlink" xmlns="http://www.w3.org/2000/svg"><clipPath id="p.0"><path d="m0 0l720.0 0l0 720.0l-720.0 0l0 -720.0z" clip-rule="nonzero"/></clipPath><g clip-path="url(#p.0)"><path fill="#000000" fill-opacity="0.0" d="m0 0l720.0 0l0 720.0l-720.0 0z" fill-rule="evenodd"/><path fill="#434343" d="m442.45145 16.070866l83.70657 0l0 189.26219l183.7265 0l0 82.13939l-267.43307 0z" fill-rule="evenodd"/><path stroke="#434343" stroke-width="12.0" stroke-linejoin="round" stroke-linecap="butt" d="m442.45145 16.070866l83.70657 0l0 189.26219l183.7265 0l0 82.13939l-267.43307 0z" fill-rule="evenodd"/><path fill="#434343" d="m284.29922 710.81366l-83.70656 0l0 -189.2622l-183.72653 0l0 -82.13937l267.43307 0z" fill-rule="evenodd"/><path stroke="#434343" stroke-width="12.0" stroke-linejoin="round" stroke-linecap="butt" d="m284.29922 710.81366l-83.70656 0l0 -189.2622l-183.72653 0l0 -82.13937l267.43307 0z" fill-rule="evenodd"/><path fill="#434343" d="m711.8688 439.41208l0 84.49521l-188.48828 0l0 185.45752l-82.9133 0l0 -269.95273z" fill-rule="evenodd"/><path stroke="#434343" stroke-width="12.0" stroke-linejoin="round" stroke-linecap="butt" d="m711.8688 439.41208l0 84.49521l-188.48828 0l0 185.45752l-82.9133 0l0 -269.95273z" fill-rule="evenodd"/><path fill="#434343" d="m12.897637 283.50394l0 -83.14227l189.26218 0l0 -184.2908l82.139404 0l0 267.43307z" fill-rule="evenodd"/><path stroke="#434343" stroke-width="12.0" stroke-linejoin="round" stroke-linecap="butt" d="m12.897637 283.50394l0 -83.14227l189.26218 0l0 -184.2908l82.139404 0l0 267.43307z" fill-rule="evenodd"/></g></svg>