<svg version="1.1" viewBox="0.0 0.0 720.0 720.0" fill="none" stroke="none" stroke-linecap="square" stroke-miterlimit="10" xmlns:xlink="http://www.w3.org/1999/xlink" xmlns="http://www.w3.org/2000/svg"><clipPath id="p.0"><path d="m0 0l720.0 0l0 720.0l-720.0 0l0 -720.0z" clip-rule="nonzero"/></clipPath><g clip-path="url(#p.0)"><path fill="#000000" fill-opacity="0.0" d="m0 0l720.0 0l0 720.0l-720.0 0z" fill-rule="evenodd"/><path fill="#f6f0ba" d="m14.803882 278.64682l232.9588 -45.585587l113.16646 -219.17935l113.16644 219.17935l232.9588 45.585587l-163.01807 181.04587l30.809998 247.35278l-213.91718 -107.286804l-213.91718 107.286804l30.809998 -247.35278z" fill-rule="evenodd"/><path stroke="#f6f0ba" stroke-width="24.0" stroke-linejoin="round" stroke-linecap="butt" d="m14.803882 278.64682l232.9588 -45.585587l113.16646 -219.17935l113.16644 219.17935l232.9588 45.585587l-163.01807 181.04587l30.809998 247.35278l-213.91718 -107.286804l-213.91718 107.286804l30.809998 -247.35278z" fill-rule="evenodd"/><path fill="#000000" fill-opacity="0.0" d="m242.92914 317.5656l234.14172 0l0 101.79529l-234.14172 0z" fill-rule="evenodd"/><path fill="#434343" d="m275.13226 362.16248q3.59375 0 6.71875 1.28125q3.125 1.28125 5.484375 3.359375q2.359375 2.078125 3.671875 4.484375q1.328125 2.390625 1.328125 4.71875l-1.046875 -2.953125l0 -8.0q0 -0.640625 0.4375 -1.125q0.4375 -0.484375 1.15625 -0.484375q0.734375 0 1.171875 0.484375q0.4375 0.484375 0.4375 1.125l0 34.390625q0 6.15625 -2.53125 10.640625q-2.515625 4.484375 -6.921875 6.875q-4.390625 2.40625 -10.234375 2.40625q-3.1875 0 -6.4375 -0.84375q-3.234375 -0.84375 -5.40625 -2.125q-2.15625 -1.265625 -2.15625 -2.71875q0 -0.625 0.359375 -1.03125q0.359375 -0.40625 1.0 -0.40625q0.8125 0 1.484375 0.875q0.6875 0.890625 2.4375 1.609375q0.71875 0.234375 1.953125 0.640625q1.25 0.40625 3.0 0.671875q1.765625 0.28125 3.9375 0.28125q7.59375 0 11.953125 -4.6875q4.359375 -4.671875 4.359375 -12.1875l0 -7.921875l0.796875 0.078125q-0.953125 3.453125 -2.796875 5.859375q-1.84375 2.390625 -4.203125 3.875q-2.359375 1.46875 -4.96875 2.140625q-2.59375 0.6875 -4.984375 0.6875q-5.515625 0 -9.890625 -2.75q-4.359375 -2.765625 -6.921875 -7.515625q-2.546875 -4.765625 -2.546875 -10.765625q0 -6.0 2.546875 -10.765625q2.5625 -4.765625 6.921875 -7.484375q4.375 -2.71875 9.890625 -2.71875zm0.15625 3.046875q-4.640625 0 -8.359375 2.328125q-3.71875 2.3125 -5.84375 6.359375q-2.109375 4.03125 -2.109375 9.234375q0 5.109375 2.109375 9.203125q2.125 4.078125 5.84375 6.4375q3.71875 2.359375 8.359375 2.359375q4.640625 0 8.3125 -2.28125q3.6875 -2.28125 5.84375 -6.3125q2.171875 -4.046875 2.171875 -9.40625q0 -5.359375 -2.171875 -9.40625q-2.15625 -4.046875 -5.84375 -6.28125q-3.671875 -2.234375 -8.3125 -2.234375zm64.79996 -1.765625q0.71875 0 1.15625 0.484375q0.4375 0.484375 0.4375 1.125l0 36.71875q0 0.640625 -0.484375 1.125q-0.46875 0.46875 -1.109375 0.46875q-0.71875 0 -1.15625 -0.46875q-0.4375 -0.484375 -0.4375 -1.125l0 -11.359375l1.28125 -1.046875q0 2.5625 -1.28125 5.203125q-1.28125 2.640625 -3.53125 4.796875q-2.234375 2.15625 -5.28125 3.484375q-3.03125 1.3125 -6.546875 1.3125q-5.359375 0 -9.5625 -2.796875q-4.203125 -2.796875 -6.609375 -7.59375q-2.390625 -4.8125 -2.390625 -10.8125q0 -6.078125 2.4375 -10.75q2.4375 -4.6875 6.640625 -7.359375q4.203125 -2.6875 9.484375 -2.6875q3.4375 0 6.46875 1.25q3.046875 1.234375 5.328125 3.484375q2.28125 2.234375 3.5625 5.234375q1.28125 3.0 1.28125 6.515625l-1.28125 -2.0l0 -11.59375q0 -0.640625 0.4375 -1.125q0.4375 -0.484375 1.15625 -0.484375zm-16.796875 37.6875q4.484375 0 8.0 -2.359375q3.515625 -2.359375 5.515625 -6.484375q2.0 -4.125 2.0 -9.328125q0 -4.953125 -2.0 -8.984375q-2.0 -4.046875 -5.515625 -6.40625q-3.515625 -2.359375 -8.0 -2.359375q-4.40625 0 -7.921875 2.28125q-3.515625 2.28125 -5.5625 6.28125q-2.03125 4.0 -2.03125 9.1875q0 5.203125 2.0 9.328125q2.0 4.125 5.515625 6.484375q3.515625 2.359375 8.0 2.359375zm48.724945 -38.171875q4.46875 0 8.1875 2.453125q3.71875 2.4375 5.078125 7.640625l-1.03125 0.71875l0.390625 -1.53125q1.046875 -2.640625 3.640625 -4.71875q2.609375 -2.078125 5.84375 -3.3125q3.25 -1.25 6.28125 -1.25q4.796875 0 7.921875 2.09375q3.125 2.078125 4.59375 5.5625q1.484375 3.46875 1.484375 7.875l0 23.28125q0 0.640625 -0.4375 1.125q-0.4375 0.46875 -1.15625 0.46875q-0.71875 0 -1.171875 -0.46875q-0.4375 -0.484375 -0.4375 -1.125l0 -22.96875q0 -3.515625 -1.15625 -6.4375q-1.15625 -2.921875 -3.59375 -4.640625q-2.4375 -1.71875 -6.359375 -1.71875q-3.453125 0 -6.734375 1.71875q-3.265625 1.71875 -5.390625 4.640625q-2.125 2.921875 -2.125 6.4375l0 22.96875q0 0.640625 -0.4375 1.125q-0.4375 0.46875 -1.15625 0.46875q-0.71875 0 -1.171875 -0.46875q-0.4375 -0.484375 -0.4375 -1.125l0 -23.359375q0 -3.453125 -1.078125 -6.25q-1.078125 -2.796875 -3.40625 -4.46875q-2.3125 -1.6875 -6.140625 -1.6875q-3.375 0 -6.53125 1.6875q-3.15625 1.671875 -5.234375 4.46875q-2.078125 2.796875 -2.078125 6.25l0 23.359375q0 0.640625 -0.484375 1.125q-0.484375 0.46875 -1.125 0.46875q-0.71875 0 -1.15625 -0.46875q-0.4375 -0.484375 -0.4375 -1.125l0 -36.71875q0 -0.640625 0.46875 -1.125q0.484375 -0.484375 1.125 -0.484375q0.71875 0 1.15625 0.484375q0.453125 0.484375 0.453125 1.125l0 8.71875l-2.40625 4.078125q0 -2.796875 1.359375 -5.4375q1.359375 -2.640625 3.640625 -4.765625q2.28125 -2.125 5.203125 -3.40625q2.921875 -1.28125 6.046875 -1.28125zm73.34494 41.203125q-6.0 0 -10.59375 -2.546875q-4.59375 -2.5625 -7.234375 -7.25q-2.640625 -4.6875 -2.640625 -11.0q0 -6.71875 2.59375 -11.4375q2.609375 -4.71875 6.71875 -7.234375q4.125 -2.53125 8.765625 -2.53125q3.359375 0 6.5625 1.078125q3.203125 1.078125 5.71875 3.359375q2.515625 2.28125 4.078125 5.6875q1.5625 3.390625 1.71875 8.125q0 0.640625 -0.484375 1.15625q-0.46875 0.515625 -1.109375 0.515625l-32.640625 0l-0.484375 -3.03125l32.234375 0l-0.796875 0.71875l0 -1.453125q-0.40625 -4.234375 -2.6875 -7.109375q-2.265625 -2.890625 -5.46875 -4.359375q-3.203125 -1.484375 -6.640625 -1.484375q-2.40625 0 -5.046875 1.078125q-2.640625 1.078125 -4.875 3.28125q-2.234375 2.203125 -3.640625 5.5625q-1.40625 3.359375 -1.40625 7.84375q0 4.875 1.953125 8.953125q1.96875 4.078125 5.84375 6.5625q3.890625 2.484375 9.5625 2.484375q2.734375 0 5.125 -0.921875q2.40625 -0.921875 4.328125 -2.4375q1.921875 -1.53125 3.109375 -3.28125q0.640625 -0.71875 1.359375 -0.71875q0.5625 0 0.953125 0.4375q0.40625 0.4375 0.40625 1.0q0 0.5625 -0.3125 0.953125q-2.484375 3.203125 -6.359375 5.609375q-3.875 2.390625 -8.609375 2.390625z" fill-rule="nonzero"/></g></svg>