<svg version="1.1" viewBox="0.0 0.0 720.0 720.0" fill="none" stroke="none" stroke-linecap="square" stroke-miterlimit="10" xmlns:xlink="http://www.w3.org/1999/xlink" xmlns="http://www.w3.org/2000/svg"><clipPath id="p.0"><path d="m0 0l720.0 0l0 720.0l-720.0 0l0 -720.0z" clip-rule="nonzero"/></clipPath><g clip-path="url(#p.0)"><path fill="#000000" fill-opacity="0.0" d="m0 0l720.0 0l0 720.0l-720.0 0z" fill-rule="evenodd"/><path fill="#cef2fc" d="m-6.981627E-5 120.0024l0 0c0 -66.2755 53.726902 -120.0024 120.002396 -120.0024l479.99524 0l0 0c31.8266 0 62.34967 12.643074 84.85449 35.14789c22.504822 22.504818 35.14789 53.027893 35.14789 84.854515l0 479.9952c0 66.27545 -53.72693 120.00238 -120.00238 120.00238l-479.99524 0c-66.2755 0 -120.002396 -53.72693 -120.002396 -120.00238z" fill-rule="evenodd"/><path fill="#000000" fill-opacity="0.0" d="m149.11548 309.10236l438.42523 0l0 101.79529l-438.42523 0z" fill-rule="evenodd"/><path fill="#434343" d="m213.0686 353.54297q0.640625 0 1.15625 0.359375q0.53125 0.359375 0.53125 1.15625q0 0.078125 -0.046875 0.359375q-0.03125 0.28125 -0.109375 0.4375l-12.40625 38.0q-0.234375 0.484375 -0.640625 0.765625q-0.390625 0.28125 -0.875 0.28125q-0.96875 0 -1.515625 -1.046875l-12.328125 -27.75l1.203125 0.390625l-10.875 27.359375q-0.40625 1.046875 -1.53125 1.046875q-0.46875 0 -0.921875 -0.28125q-0.4375 -0.28125 -0.59375 -0.765625l-12.796875 -38.0q-0.15625 -0.46875 -0.15625 -0.796875q0 -0.71875 0.46875 -1.109375q0.484375 -0.40625 1.203125 -0.40625q0.484375 0 0.875 0.28125q0.40625 0.28125 0.5625 0.765625l11.921875 36.71875l-1.359375 0l11.359375 -28.171875q0.40625 -1.03125 1.515625 -1.03125q0.484375 0 0.921875 0.28125q0.4375 0.28125 0.609375 0.75l12.234375 28.25l-1.59375 0l11.75 -36.796875q0.40625 -1.046875 1.4375 -1.046875zm28.804947 0.953125q4.796875 0 7.953125 2.09375q3.171875 2.078125 4.71875 5.59375q1.5625153 3.515625 1.5625153 7.765625l0 23.359375q0 0.640625 -0.48439026 1.125q-0.46875 0.46875 -1.109375 0.46875q-0.71875 0 -1.15625 -0.46875q-0.4375 -0.484375 -0.4375 -1.125l0 -23.359375q0 -3.453125 -1.125 -6.25q-1.125 -2.796875 -3.53125 -4.46875q-2.390625 -1.6875 -6.390625 -1.6875q-3.4375 0 -6.71875 1.6875q-3.28125 1.671875 -5.40625 4.46875q-2.109375 2.796875 -2.109375 6.25l0 23.359375q0 0.640625 -0.484375 1.125q-0.484375 0.46875 -1.125 0.46875q-0.71875 0 -1.15625 -0.46875q-0.4375 -0.484375 -0.4375 -1.125l0 -56.0q0 -0.640625 0.46875 -1.125q0.484375 -0.484375 1.125 -0.484375q0.71875 0 1.15625 0.484375q0.453125 0.484375 0.453125 1.125l0 27.90625l-2.0 3.84375q0 -2.875 1.4375 -5.515625q1.4375 -2.640625 3.796875 -4.671875q2.359375 -2.046875 5.234375 -3.203125q2.890625 -1.171875 5.765625 -1.171875zm30.725601 38.8125q0 0.640625 -0.484375 1.125q-0.484375 0.46875 -1.125 0.46875q-0.71875 0 -1.15625 -0.46875q-0.4375 -0.484375 -0.4375 -1.125l0 -38.0q0 -0.640625 0.46875 -1.125q0.484375 -0.484375 1.125 -0.484375q0.71875 0 1.15625 0.484375q0.453125 0.484375 0.453125 1.125l0 38.0zm-2.046875 -45.125q-1.28125 0 -2.046875 -0.71875q-0.75 -0.71875 -0.75 -1.84375l0 -0.640625q0 -1.125 0.796875 -1.84375q0.796875 -0.71875 2.078125 -0.71875q1.125 0 1.875 0.71875q0.765625 0.71875 0.765625 1.84375l0 0.640625q0 1.125 -0.765625 1.84375q-0.75 0.71875 -1.953125 0.71875zm11.63623 6.484375l18.5625 0q0.640625 0 1.078125 0.484375q0.453125 0.46875 0.453125 1.03125q0 0.640625 -0.453125 1.078125q-0.4375 0.4375 -1.078125 0.4375l-18.5625 0q-0.546875 0 -1.03125 -0.46875q-0.484375 -0.484375 -0.484375 -1.046875q0 -0.640625 0.484375 -1.078125q0.484375 -0.4375 1.03125 -0.4375zm8.171875 -11.765625q0.71875 0 1.15625 0.484375q0.4375 0.46875 0.4375 1.109375l0 41.6875q0 2.640625 0.671875 3.890625q0.6875 1.234375 1.71875 1.59375q1.046875 0.359375 2.015625 0.359375q0.5625 0 0.953125 -0.15625q0.40625 -0.171875 0.96875 -0.171875q0.546875 0 0.953125 0.453125q0.40625 0.4375 0.40625 0.984375q0 0.71875 -0.921875 1.25q-0.921875 0.515625 -2.28125 0.515625q-0.484375 0 -1.734375 -0.03125q-1.234375 -0.046875 -2.640625 -0.71875q-1.390625 -0.6875 -2.359375 -2.484375q-0.953125 -1.8125 -0.953125 -5.328125l0 -41.84375q0 -0.640625 0.484375 -1.109375q0.484375 -0.484375 1.125 -0.484375zm38.067474 52.796875q-6.0 0 -10.59375 -2.546875q-4.59375 -2.5625 -7.234375 -7.25q-2.640625 -4.6875 -2.640625 -11.0q0 -6.71875 2.59375 -11.4375q2.609375 -4.71875 6.71875 -7.234375q4.125 -2.53125 8.765625 -2.53125q3.359375 0 6.5625 1.078125q3.203125 1.078125 5.71875 3.359375q2.515625 2.28125 4.078125 5.6875q1.5625 3.390625 1.71875 8.125q0 0.640625 -0.484375 1.15625q-0.46875 0.515625 -1.109375 0.515625l-32.640625 0l-0.484375 -3.03125l32.234375 0l-0.796875 0.71875l0 -1.453125q-0.40625 -4.234375 -2.6875 -7.109375q-2.265625 -2.890625 -5.46875 -4.359375q-3.203125 -1.484375 -6.640625 -1.484375q-2.40625 0 -5.046875 1.078125q-2.640625 1.078125 -4.875 3.28125q-2.234375 2.203125 -3.640625 5.5625q-1.40625 3.359375 -1.40625 7.84375q0 4.875 1.953125 8.953125q1.96875 4.078125 5.84375 6.5625q3.890625 2.484375 9.5625 2.484375q2.734375 0 5.125 -0.921875q2.40625 -0.921875 4.328125 -2.4375q1.921875 -1.53125 3.109375 -3.28125q0.640625 -0.71875 1.359375 -0.71875q0.5625 0 0.953125 0.4375q0.40625 0.4375 0.40625 1.0q0 0.5625 -0.3125 0.953125q-2.484375 3.203125 -6.359375 5.609375q-3.875 2.390625 -8.609375 2.390625zm44.73059 -42.0q5.359375 0 9.515625 2.6875q4.15625 2.671875 6.59375 7.359375q2.453125 4.671875 2.453125 10.75q0 6.0 -2.453125 10.8125q-2.4375 4.796875 -6.640625 7.59375q-4.1875 2.796875 -9.46875 2.796875q-2.640625 0 -5.078125 -0.796875q-2.4375 -0.796875 -4.53125 -2.28125q-2.078125 -1.484375 -3.796875 -3.59375q-1.71875 -2.125 -3.0 -4.765625l1.046875 -1.125l0 10.171875q0 0.640625 -0.453125 1.125q-0.4375 0.46875 -1.15625 0.46875q-0.640625 0 -1.125 -0.46875q-0.46875 -0.484375 -0.46875 -1.125l0 -55.921875q0 -0.640625 0.4375 -1.125q0.4375 -0.484375 1.15625 -0.484375q0.71875 0 1.15625 0.484375q0.453125 0.484375 0.453125 1.125l0 28.953125l-1.046875 -0.5625q1.125 -2.953125 2.796875 -5.1875q1.6875 -2.25 3.84375 -3.765625q2.15625 -1.515625 4.640625 -2.3125q2.484375 -0.8125 5.125 -0.8125zm-0.15625 3.046875q-4.5625 0 -8.046875 2.28125q-3.484375 2.28125 -5.484375 6.28125q-2.0 4.0 -2.0 9.1875q0 5.203125 2.0 9.328125q2.0 4.125 5.484375 6.484375q3.484375 2.359375 8.046875 2.359375q4.46875 0 7.953125 -2.40625q3.484375 -2.40625 5.515625 -6.515625q2.046875 -4.125 2.046875 -9.25q0 -5.1875 -2.046875 -9.1875q-2.03125 -4.0 -5.515625 -6.28125q-3.484375 -2.28125 -7.953125 -2.28125zm65.83435 18.0q0 5.921875 -2.5625 10.6875q-2.5625 4.75 -7.0 7.515625q-4.4375 2.75 -10.125 2.75q-5.59375 0 -10.078125 -2.75q-4.46875 -2.765625 -7.078125 -7.515625q-2.59375 -4.765625 -2.59375 -10.6875q0 -6.0 2.59375 -10.765625q2.609375 -4.765625 7.078125 -7.515625q4.484375 -2.765625 10.078125 -2.765625q5.6875 0 10.125 2.765625q4.4375 2.75 7.0 7.515625q2.5625 4.765625 2.5625 10.765625zm-3.203125 0q0 -5.203125 -2.125 -9.234375q-2.109375 -4.046875 -5.828125 -6.40625q-3.71875 -2.359375 -8.53125 -2.359375q-4.71875 0 -8.484375 2.359375q-3.75 2.359375 -5.90625 6.40625q-2.15625 4.03125 -2.15625 9.234375q0 5.109375 2.15625 9.15625q2.15625 4.046875 5.90625 6.40625q3.765625 2.359375 8.484375 2.359375q4.8125 0 8.53125 -2.359375q3.71875 -2.359375 5.828125 -6.40625q2.125 -4.046875 2.125 -9.15625zm46.401184 -19.765625q0.71875 0 1.15625 0.484375q0.4375 0.484375 0.4375 1.125l0 36.71875q0 0.640625 -0.484375 1.125q-0.46875 0.46875 -1.109375 0.46875q-0.71875 0 -1.15625 -0.46875q-0.4375 -0.484375 -0.4375 -1.125l0 -11.359375l1.28125 -1.046875q0 2.5625 -1.28125 5.203125q-1.28125 2.640625 -3.53125 4.796875q-2.234375 2.15625 -5.28125 3.484375q-3.03125 1.3125 -6.546875 1.3125q-5.359375 0 -9.5625 -2.796875q-4.203125 -2.796875 -6.609375 -7.59375q-2.390625 -4.8125 -2.390625 -10.8125q0 -6.078125 2.4375 -10.75q2.4375 -4.6875 6.640625 -7.359375q4.203125 -2.6875 9.484375 -2.6875q3.4375 0 6.46875 1.25q3.046875 1.234375 5.328125 3.484375q2.28125 2.234375 3.5625 5.234375q1.28125 3.0 1.28125 6.515625l-1.28125 -2.0l0 -11.59375q0 -0.640625 0.4375 -1.125q0.4375 -0.484375 1.15625 -0.484375zm-16.796875 37.6875q4.484375 0 8.0 -2.359375q3.515625 -2.359375 5.515625 -6.484375q2.0 -4.125 2.0 -9.328125q0 -4.953125 -2.0 -8.984375q-2.0 -4.046875 -5.515625 -6.40625q-3.515625 -2.359375 -8.0 -2.359375q-4.40625 0 -7.921875 2.28125q-3.515625 2.28125 -5.5625 6.28125q-2.03125 4.0 -2.03125 9.1875q0 5.203125 2.0 9.328125q2.0 4.125 5.515625 6.484375q3.515625 2.359375 8.0 2.359375zm33.27185 2.234375q-0.71875 0 -1.15625 -0.46875q-0.4375 -0.484375 -0.4375 -1.125l0 -36.71875q0 -0.640625 0.46875 -1.125q0.484375 -0.484375 1.125 -0.484375q0.71875 0 1.15625 0.484375q0.453125 0.484375 0.453125 1.125l0 13.515625l-1.359375 2.078125q0 -3.125 1.078125 -6.3125q1.078125 -3.203125 3.15625 -5.96875q2.078125 -2.765625 5.078125 -4.484375q3.0 -1.71875 6.921875 -1.71875q1.125 0 2.40625 0.328125q1.28125 0.3125 1.28125 1.515625q0 0.71875 -0.40625 1.203125q-0.40625 0.46875 -1.046875 0.46875q-0.46875 0 -1.15625 -0.359375q-0.671875 -0.359375 -1.953125 -0.359375q-2.5625 0 -5.046875 1.53125q-2.484375 1.515625 -4.53125 4.046875q-2.03125 2.515625 -3.234375 5.46875q-1.1875 2.953125 -1.1875 5.765625l0 20.0q0 0.640625 -0.484375 1.125q-0.484375 0.46875 -1.125 0.46875zm58.804993 -59.203125q0.71875 0 1.15625 0.484375q0.4375 0.484375 0.4375 1.125l0 56.0q0 0.640625 -0.484375 1.125q-0.46875 0.46875 -1.109375 0.46875q-0.71875 0 -1.15625 -0.46875q-0.4375 -0.484375 -0.4375 -1.125l0 -11.359375l1.28125 -1.765625q0 2.71875 -1.25 5.484375q-1.234375 2.75 -3.515625 5.03125q-2.28125 2.28125 -5.328125 3.640625q-3.03125 1.359375 -6.546875 1.359375q-5.28125 0 -9.484375 -2.75q-4.203125 -2.765625 -6.640625 -7.515625q-2.4375 -4.765625 -2.4375 -10.765625q0 -6.0 2.4375 -10.765625q2.4375 -4.765625 6.640625 -7.484375q4.203125 -2.71875 9.484375 -2.71875q3.28125 0 6.28125 1.25q3.0 1.234375 5.3125 3.484375q2.3125 2.234375 3.671875 5.234375q1.375 3.0 1.375 6.515625l-1.28125 -2.0l0 -30.875q0 -0.640625 0.4375 -1.125q0.4375 -0.484375 1.15625 -0.484375zm-16.796875 56.96875q4.5625 0 8.03125 -2.3125q3.484375 -2.328125 5.484375 -6.40625q2.0 -4.09375 2.0 -9.28125q0 -5.203125 -2.0 -9.234375q-2.0 -4.046875 -5.515625 -6.359375q-3.515625 -2.328125 -8.0 -2.328125q-4.40625 0 -7.921875 2.328125q-3.515625 2.3125 -5.5625 6.359375q-2.03125 4.03125 -2.03125 9.234375q0 5.109375 2.03125 9.203125q2.046875 4.078125 5.5625 6.4375q3.515625 2.359375 7.921875 2.359375z" fill-rule="nonzero"/></g></svg>